HIERARCHY
ROOT Hips
{
    OFFSET 0.000000 0.000000 0.000000
    CHANNELS 6 Xposition Yposition Zposition Zrotation Xrotation Yrotation
    JOINT Spine
    {
        OFFSET -0.000000 7.236184 0.000000
        CHANNELS 3 Zrotation Xrotation Yrotation
        JOINT Spine1
        {
            OFFSET -0.000000 20.420147 0.000000
            CHANNELS 3 Zrotation Xrotation Yrotation
            JOINT Neck
            {
                OFFSET -0.000000 20.336288 1.848754
                CHANNELS 3 Zrotation Xrotation Yrotation
                JOINT Head
                {
                    OFFSET -0.000000 12.354461 -1.764923
                    CHANNELS 3 Zrotation Xrotation Yrotation
                    End Site
                    {
                        OFFSET -0.000000 22.061537 0.000000
                    }
                }
            }
            JOINT LeftShoulder
            {
                OFFSET 3.573296 18.396038 -0.314103
                CHANNELS 3 Zrotation Xrotation Yrotation
                JOINT LeftArm
                {
                    OFFSET 10.880760 0.000000 0.000000
                    CHANNELS 3 Zrotation Xrotation Yrotation
                    JOINT LeftForeArm
                    {
                        OFFSET 27.185530 0.000000 0.000000
                        CHANNELS 3 Zrotation Xrotation Yrotation
                        JOINT LeftHand
                        {
                            OFFSET 27.825975 0.000000 0.000000
                            CHANNELS 3 Zrotation Xrotation Yrotation
                            End Site
                            {
                                OFFSET 13.236923 0.000000 0.000000
                            }
                        }
                    }
                }
            }
            JOINT RightShoulder
            {
                OFFSET -3.474926 18.396038 -0.314103
                CHANNELS 3 Zrotation Xrotation Yrotation
                JOINT RightArm
                {
                    OFFSET -10.880760 0.000000 0.000000
                    CHANNELS 3 Zrotation Xrotation Yrotation
                    JOINT RightForeArm
                    {
                        OFFSET -27.185530 0.000000 0.000000
                        CHANNELS 3 Zrotation Xrotation Yrotation
                        JOINT RightHand
                        {
                            OFFSET -27.825975 0.000000 0.000000
                            CHANNELS 3 Zrotation Xrotation Yrotation
                            End Site
                            {
                                OFFSET -13.236923 0.000000 0.000000
                            }
                        }
                    }
                }
            }
        }
    }
    JOINT LeftUpLeg
    {
        OFFSET 8.824615 0.000000 0.000000
        CHANNELS 3 Zrotation Xrotation Yrotation
        JOINT LeftLeg
        {
            OFFSET -0.000000 -35.111282 0.000000
            CHANNELS 3 Zrotation Xrotation Yrotation
            JOINT LeftFoot
            {
                OFFSET -0.000000 -42.324711 0.000000
                CHANNELS 3 Zrotation Xrotation Yrotation
                JOINT LeftToeBase
                {
                    OFFSET -0.000000 -5.735999 13.236923
                    CHANNELS 3 Zrotation Xrotation Yrotation
                    End Site
                    {
                        OFFSET -0.000000 0.000000 3.529846
                    }
                }
            }
        }
    }
    JOINT RightUpLeg
    {
        OFFSET -8.824615 0.000000 0.000000
        CHANNELS 3 Zrotation Xrotation Yrotation
        JOINT RightLeg
        {
            OFFSET -0.000000 -35.111282 0.000000
            CHANNELS 3 Zrotation Xrotation Yrotation
            JOINT RightFoot
            {
                OFFSET -0.000000 -42.324711 0.000000
                CHANNELS 3 Zrotation Xrotation Yrotation
                JOINT RightToeBase
                {
                    OFFSET -0.000000 -5.735999 13.236923
                    CHANNELS 3 Zrotation Xrotation Yrotation
                    End Site
                    {
                        OFFSET -0.000000 0.000000 3.529846
                    }
                }
            }
        }
    }
}
MOTION
Frames:    11
Frame Time:    0.008333
14.980856    83.319435    116.479912    -1.187969    -10.090982    -176.781296    -2.900985    -17.484537    -1.095724    2.989349    4.643639    -0.770736    1.054006    12.138906    0.721886    -1.809802    -20.798334    0.134435    0.514167    16.898863    0.205130    -47.168324    45.736397    -39.348385    2.017162    4.406862    -13.349388    16.240938    5.752676    7.802398    6.215933    17.225630    -6.648013    46.712296    44.025845    28.395876    -1.085577    -4.331389    17.127291    -18.114330    -3.720107    -2.818164    6.093296    -10.235228    2.029641    -0.715197    8.329818    1.364678    -7.487280    -6.949964    -6.990706    -1.945783    1.913685    2.149492    -4.259776    -4.104884    0.118763    3.591313    2.911541    0.266730    -1.337342    -6.581009    -14.504418    -0.176675    -0.914094    0.191330    
15.048915    83.320686    116.483978    -1.190281    -10.122061    -176.770035    -2.903115    -17.493481    -1.111985    3.001292    4.645402    -0.787109    1.044917    12.115705    0.736366    -1.861298    -20.798586    0.133174    0.549237    16.838900    0.162298    -47.160728    45.556873    -39.482338    2.060600    4.338763    -13.578200    16.043949    5.673234    7.752388    6.210164    17.238897    -6.655639    46.742889    44.069443    28.389708    -1.096355    -4.358471    17.201822    -18.095703    -3.745778    -2.815303    6.125072    -10.306216    2.007380    -0.702905    8.380242    1.445040    -7.525097    -6.927397    -7.050231    -1.956084    1.897753    2.160931    -4.209252    -4.132444    0.073768    3.575502    2.895259    0.220975    -1.352580    -6.559129    -14.427611    -0.188340    -0.918981    0.203964    
15.116921    83.321953    116.488205    -1.192753    -10.153354    -176.758835    -2.905025    -17.502665    -1.128431    3.012598    4.647644    -0.803535    1.035757    12.092223    0.751029    -1.912002    -20.799234    0.132421    0.584693    16.778431    0.120140    -47.148998    45.382610    -39.620380    2.110030    4.280720    -13.807375    15.850524    5.605477    7.704622    6.204861    17.252333    -6.662739    46.772202    44.113754    28.384571    -1.107505    -4.382401    17.276213    -18.079117    -3.768358    -2.811386    6.156414    -10.377338    1.985652    -0.690221    8.430356    1.525155    -7.564419    -6.903884    -7.110853    -1.967059    1.881747    2.173116    -4.159503    -4.160155    0.030086    3.560745    2.878779    0.176981    -1.367808    -6.535643    -14.355032    -0.200952    -0.925578    0.217625    
15.183889    83.323196    116.492714    -1.195545    -10.184573    -176.748016    -2.906186    -17.512177    -1.144756    3.021913    4.650856    -0.819877    1.027646    12.068009    0.766034    -1.961704    -20.800049    0.132245    0.620698    16.717182    0.079177    -47.129944    45.220516    -39.763752    2.171015    4.244488    -14.033972    15.667211    5.562521    7.661213    6.201604    17.265924    -6.668779    46.797840    44.158638    28.381310    -1.119524    -4.399621    17.349676    -18.066736    -3.784251    -2.805609    6.186627    -10.447738    1.965109    -0.677323    8.479270    1.603451    -7.603819    -6.879333    -7.172017    -1.979019    1.865222    2.186391    -4.111388    -4.187904    -0.012070    3.547106    2.862465    0.137281    -1.382057    -6.509246    -14.290277    -0.215159    -0.935118    0.233013    
15.249825    83.324387    116.497566    -1.198684    -10.215601    -176.737473    -2.907275    -17.521564    -1.161056    3.030894    4.654537    -0.836201    1.018513    12.044062    0.781215    -2.008768    -20.802231    0.133123    0.656270    16.655359    0.039000    -47.098137    45.074928    -39.917023    2.249134    4.238857    -14.258587    15.497176    5.554158    7.622825    6.199202    17.280291    -6.673911    46.819164    44.204670    28.381117    -1.132833    -4.406413    17.422140    -18.060013    -3.789852    -2.796766    6.215606    -10.517402    1.946777    -0.663846    8.527158    1.679010    -7.643123    -6.853482    -7.234528    -1.992459    1.848281    2.201303    -4.064565    -4.215429    -0.053769    3.533805    2.846244    0.103983    -1.394346    -6.478486    -14.235420    -0.231693    -0.949157    0.250924    
15.315415    83.325516    116.502808    -1.202252    -10.246445    -176.727036    -2.907419    -17.531012    -1.177407    3.037777    4.659698    -0.852641    1.010180    12.019247    0.796966    -2.054950    -20.805382    0.134910    0.692867    16.591566    -0.000547    -47.049065    44.948071    -40.086315    2.349865    4.271929    -14.482925    15.341354    5.589127    7.587975    6.199359    17.295532    -6.677839    46.834270    44.253063    28.385002    -1.148548    -4.398870    17.494776    -18.060139    -3.781279    -2.783541    6.243606    -10.586756    1.931654    -0.649548    8.574523    1.751157    -7.680109    -6.826108    -7.299073    -2.007734    1.830825    2.218246    -4.018196    -4.242660    -0.096310    3.519922    2.829993    0.077053    -1.403631    -6.441668    -14.190361    -0.251585    -0.969508    0.272474    
15.379588    83.326576    116.508354    -1.206235    -10.276340    -176.716797    -2.906446    -17.540316    -1.193295    3.042216    4.666228    -0.868848    1.002726    11.994244    0.812932    -2.099158    -20.809298    0.137495    0.730476    16.526949    -0.039419    -46.979439    44.845066    -40.273170    2.475515    4.349700    -14.703289    15.204241    5.674003    7.556166    6.202353    17.312157    -6.680634    46.841583    44.303635    28.393942    -1.167655    -4.372392    17.566881    -18.068134    -3.753922    -2.764350    6.270201    -10.654476    1.920756    -0.634659    8.620754    1.817668    -7.715984    -6.797264    -7.365311    -2.025281    1.812528    2.237705    -3.973461    -4.268734    -0.137845    3.506438    2.813532    0.055784    -1.409284    -6.397882    -14.156871    -0.275098    -0.996886    0.297952    
15.443420    83.327606    116.514229    -1.210790    -10.305279    -176.706512    -2.905210    -17.548841    -1.208992    3.046398    4.673730    -0.884859    0.994105    11.969529    0.829073    -2.141418    -20.814999    0.140867    0.768202    16.460682    -0.078688    -46.883137    44.766682    -40.484852    2.631020    4.478012    -14.923573    15.084396    5.814972    7.524688    6.206668    17.331137    -6.683090    46.840324    44.357990    28.409792    -1.191720    -4.321403    17.639774    -18.084858    -3.702312    -2.737140    6.295724    -10.721256    1.914649    -0.618839    8.666750    1.879412    -7.753328    -6.765990    -7.435690    -2.045905    1.792880    2.260568    -3.930342    -4.293229    -0.177017    3.494385    2.796154    0.038990    -1.411458    -6.345386    -14.136426    -0.303198    -1.033322    0.328403    
15.505941    83.328613    116.520355    -1.216097    -10.332593    -176.696182    -2.903220    -17.556511    -1.223978    3.048871    4.682351    -0.900309    0.985753    11.945489    0.845190    -2.182004    -20.821846    0.144545    0.806428    16.393944    -0.118580    -46.758575    44.715111    -40.721664    2.816754    4.659153    -15.140160    14.983318    6.014256    7.491834    6.213163    17.352425    -6.684615    46.829472    44.415470    28.432678    -1.221515    -4.240996    17.712641    -18.111208    -3.621707    -2.699988    6.319441    -10.785403    1.909111    -0.602789    8.710812    1.940444    -7.789186    -6.732374    -7.509693    -2.069116    1.771991    2.286296    -3.890303    -4.315397    -0.211546    3.485082    2.777819    0.025824    -1.410208    -6.284191    -14.130614    -0.335927    -1.078514    0.363874    
15.569237    83.329689    116.526962    -1.222473    -10.359120    -176.685257    -2.900674    -17.563360    -1.238693    3.050171    4.692136    -0.915507    0.977046    11.921526    0.861449    -2.222232    -20.829845    0.148668    0.845877    16.324549    -0.160633    -46.597908    44.689827    -40.994682    3.041053    4.902265    -15.360446    14.897385    6.281752    7.453851    6.221525    17.376488    -6.685846    46.807686    44.479679    28.464251    -1.259554    -4.123243    17.788233    -18.148682    -3.504176    -2.649978    6.341997    -10.850688    1.914466    -0.584458    8.757588    1.990415    -7.825300    -6.696793    -7.588279    -2.095587    1.749461    2.315635    -3.852446    -4.335798    -0.241729    3.478781    2.757792    0.015399    -1.405791    -6.212450    -14.139807    -0.374317    -1.133921    0.405490    
15.631083    83.330803    116.533936    -1.229784    -10.383981    -176.673721    -2.897292    -17.569279    -1.252553    3.049269    4.702936    -0.929986    0.968972    11.898180    0.877402    -2.260885    -20.838249    0.152948    0.885551    16.254999    -0.203741    -46.404018    44.692211    -41.297359    3.298609    5.201879    -15.576381    14.827598    6.611166    7.409763    6.231565    17.401997    -6.685983    46.775085    44.549702    28.503601    -1.305778    -3.967083    17.864187    -18.196489    -3.348695    -2.587367    6.362259    -10.913518    1.918237    -0.566067    8.802377    2.042510    -7.861813    -6.658634    -7.670631    -2.123899    1.725750    2.347016    -3.818390    -4.353810    -0.266259    3.475984    2.736943    0.007957    -1.399465    -6.134388    -14.163151    -0.416312    -1.195977    0.451021    
